<?xml version="1.0" encoding="UTF-8"?>
<svg version="1.1" xmlns="http://www.w3.org/2000/svg" width="35.93" height="32">
<path d="M0 0 C0.64267822 0.47469727 1.28535645 0.94939453 1.94750977 1.43847656 C5.92214513 4.45203419 9.46338436 7.70374167 12.92358398 11.29638672 C14.52772911 12.96677626 14.52772911 12.96677626 16.9375 14.75 C19.83559728 17.14093026 22.14323933 19.78516822 24.5703125 22.64453125 C25.76024367 24.02614589 26.98181068 25.38155208 28.2421875 26.69921875 C35.40375259 34.26195035 40.88075295 43.04678998 46.4375 51.8125 C46.83001953 52.42786621 47.22253906 53.04323242 47.62695312 53.67724609 C65.06150798 81.37160932 72.66242792 115.11537366 72.6875 147.5 C72.68817474 148.28117188 72.68884949 149.06234375 72.68954468 149.8671875 C72.67237875 162.39350433 72.08187629 174.5276023 69.4375 186.8125 C69.27121094 187.59367188 69.10492188 188.37484375 68.93359375 189.1796875 C58.23176007 237.53612117 28.73326883 278.97848413 -12.63891602 305.86914062 C-43.11689561 325.14126442 -77.40259734 335.28316572 -113.5 335.1875 C-114.31197845 335.18662384 -115.12395691 335.18574768 -115.96054077 335.18484497 C-129.50518896 335.13682079 -142.38631599 334.15150784 -155.5625 330.8125 C-156.54992187 330.56580566 -157.53734375 330.31911133 -158.5546875 330.06494141 C-188.99483171 322.25842457 -214.51281959 307.91652971 -238.5625 287.8125 C-239.5525 287.01005859 -239.5525 287.01005859 -240.5625 286.19140625 C-245.08158291 282.46921519 -248.80249983 278.28796579 -252.5625 273.8125 C-253.67238281 272.55179687 -253.67238281 272.55179687 -254.8046875 271.265625 C-287.16350545 233.84104961 -303.22722258 185.06816689 -300.17041016 135.72363281 C-296.44945172 88.21705658 -275.5180502 41.78002263 -239.5625 9.8125 C-170.29245964 -48.61131035 -73.47222661 -54.44671474 0 0 Z " fill="#4CAF50" transform="translate(323.5625,60.1875)"/>
<path d="M0 0 C12.54 0 25.08 0 38 0 C38 17.49 38 34.98 38 53 C51.53 52.67 65.06 52.34 79 52 C79.33 34.84 79.66 17.68 80 0 C92.21 0 104.42 0 117 0 C117 46.53 117 93.06 117 141 C104.79 141 92.58 141 80 141 C80 122.52 80 104.04 80 85 C66.14 85 52.28 85 38 85 C38 103.48 38 121.96 38 141 C25.46 141 12.92 141 0 141 C0 94.47 0 47.94 0 0 Z " fill="#FEFEFE" transform="translate(91,136)"/>
<path d="M0 0 C12.54 0 25.08 0 38 0 C38 17.49 38 34.98 38 53 C51.53 52.67 65.06 52.34 79 52 C79.33 34.84 79.66 17.68 80 0 C92.21 0 104.42 0 117 0 C117 46.53 117 93.06 117 141 C104.79 141 92.58 141 80 141 C80 122.52 80 104.04 80 85 C65.81 85 51.62 85 37 85 C37 103.48 37 121.96 37 141 C24.79 141 12.58 141 0 141 C0 94.47 0 47.94 0 0 Z " fill="#FCFEFC" transform="translate(212,136)"/>
<path d="M0 0 C19.305 0.495 19.305 0.495 39 1 C39 1.66 39 2.32 39 3 C39.66 2.67 40.32 2.34 41 2 C43.84429357 1.91308999 46.66379176 1.88446198 49.5078125 1.90234375 C50.76874222 1.90446617 50.76874222 1.90446617 52.05514526 1.90663147 C54.74513275 1.91223763 57.43503759 1.92479114 60.125 1.9375 C61.94661338 1.94251421 63.76822807 1.94707725 65.58984375 1.95117188 C70.05992777 1.96220906 74.52994986 1.9794778 79 2 C79 2.33 79 2.66 79 3 C66.79 3 54.58 3 42 3 C42 49.53 42 96.06 42 144 C54.21 144 66.42 144 79 144 C79 125.52 79 107.04 79 88 C93.19 88 107.38 88 122 88 C122 106.48 122 124.96 122 144 C134.21 144 146.42 144 159 144 C159 97.47 159 50.94 159 3 C146.79 3 134.58 3 122 3 C122.01160156 6.74214844 122.02320313 10.48429688 122.03515625 14.33984375 C122.04294547 17.94718338 122.049023 21.55452209 122.05493164 25.16186523 C122.05997363 27.67716895 122.06680703 30.19246972 122.07543945 32.70776367 C122.08751094 36.31429775 122.09322949 39.92079323 122.09765625 43.52734375 C122.10281754 44.65961899 122.10797882 45.79189423 122.11329651 46.95848083 C122.11337204 47.99948441 122.11344757 49.04048798 122.11352539 50.11303711 C122.115746 51.03459091 122.11796661 51.95614471 122.12025452 52.90562439 C122 55 122 55 121 56 C117.97022196 56.08871273 114.96332978 56.1151935 111.93359375 56.09765625 C111.02497086 56.0962413 110.11634796 56.09482635 109.18019104 56.09336853 C106.26592779 56.08775193 103.35174019 56.07519665 100.4375 56.0625 C98.46679798 56.05748714 96.49609476 56.05292386 94.52539062 56.04882812 C89.68356441 56.03777711 84.84179505 56.02050138 80 56 C80 55.67 80 55.34 80 55 C93.2 55 106.4 55 120 55 C119.98839844 51.25785156 119.97679687 47.51570313 119.96484375 43.66015625 C119.95705453 40.05281662 119.950977 36.44547791 119.94506836 32.83813477 C119.94002637 30.32283105 119.93319297 27.80753028 119.92456055 25.29223633 C119.91248906 21.68570225 119.90677051 18.07920677 119.90234375 14.47265625 C119.89718246 13.34038101 119.89202118 12.20810577 119.88670349 11.04151917 C119.88662796 10.00051559 119.88655243 8.95951202 119.88647461 7.88696289 C119.884254 6.96540909 119.88203339 6.04385529 119.87974548 5.09437561 C120 3 120 3 121 2 C134.2 2 147.4 2 161 2 C161 49.19 161 96.38 161 145 C147.8 145 134.6 145 121 145 C121 126.52 121 108.04 121 89 C107.47 89 93.94 89 80 89 C80 107.48 80 125.96 80 145 C53.93 145 27.86 145 1 145 C1 144.67 1 144.34 1 144 C13.21 144 25.42 144 38 144 C38 97.47 38 50.94 38 3 C25.79 3 13.58 3 1 3 C1 20.16 1 37.32 1 55 C0.67 55 0.34 55 0 55 C-0.16796543 47.48875121 -0.32790385 39.97736272 -0.48217773 32.46582031 C-0.53565186 29.9088145 -0.59098526 27.35184688 -0.64819336 24.79492188 C-0.72995337 21.12638589 -0.8050952 17.45776593 -0.87890625 13.7890625 C-0.90594131 12.64007477 -0.93297638 11.49108704 -0.96083069 10.30728149 C-0.98092697 9.2463327 -1.00102325 8.18538391 -1.02172852 7.09228516 C-1.04171402 6.15518707 -1.06169952 5.21808899 -1.08229065 4.25259399 C-1 2 -1 2 0 0 Z " fill="#94CD96" transform="translate(170,133)"/>
<path d="M0 0 C19.305 0.495 19.305 0.495 39 1 C39 1.66 39 2.32 39 3 C39.66 3 40.32 3 41 3 C41.02332804 21.36684381 41.04097871 39.7336838 41.05181217 58.10053921 C41.05697533 66.62798494 41.06401841 75.15542149 41.07543945 83.68286133 C41.08538568 91.11266255 41.09185328 98.54245713 41.09408849 105.97226483 C41.09539571 109.9087332 41.09848221 113.84518253 41.10573006 117.78164482 C41.11248931 121.48253327 41.11461716 125.18339475 41.11310768 128.88428879 C41.11351638 130.89870802 41.11891207 132.91312427 41.12442017 134.92753601 C41.1230455 136.1153064 41.12167084 137.30307678 41.12025452 138.52684021 C41.12117631 139.5657009 41.1220981 140.6045616 41.12304783 141.67490292 C41 144 41 144 40 145 C37.1156618 145.08865208 34.25537842 145.11521296 31.37109375 145.09765625 C30.07474754 145.09553383 30.07474754 145.09553383 28.75221252 145.09336853 C25.98060708 145.08775239 23.2090812 145.07519719 20.4375 145.0625 C18.5631522 145.05748708 16.68880315 145.05292381 14.81445312 145.04882812 C10.20960456 145.03777772 5.60481579 145.0205023 1 145 C1 144.67 1 144.34 1 144 C13.21 144 25.42 144 38 144 C38 97.47 38 50.94 38 3 C25.79 3 13.58 3 1 3 C1 20.16 1 37.32 1 55 C0.67 55 0.34 55 0 55 C-0.16796543 47.48875121 -0.32790385 39.97736272 -0.48217773 32.46582031 C-0.53565186 29.9088145 -0.59098526 27.35184688 -0.64819336 24.79492188 C-0.72995337 21.12638589 -0.8050952 17.45776593 -0.87890625 13.7890625 C-0.90594131 12.64007477 -0.93297638 11.49108704 -0.96083069 10.30728149 C-0.98092697 9.2463327 -1.00102325 8.18538391 -1.02172852 7.09228516 C-1.04171402 6.15518707 -1.06169952 5.21808899 -1.08229065 4.25259399 C-1 2 -1 2 0 0 Z " fill="#64A965" transform="translate(170,133)"/>
<path d="M0 0 C0.33 0 0.66 0 1 0 C1 46.53 1 93.06 1 141 C13.54 141 26.08 141 39 141 C39 122.52 39 104.04 39 85 C52.86 85 66.72 85 81 85 C81 103.48 81 121.96 81 141 C80.34 141 79.68 141 79 141 C78.67 123.51 78.34 106.02 78 88 C66.12 88 54.24 88 42 88 C41.67 104.17 41.34 120.34 41 137 C41.66 137 42.32 137 43 137 C42.75 138.875 42.75 138.875 42 141 C29.46383011 147.26808495 14.01586403 143 0 143 C0 95.81 0 48.62 0 0 Z " fill="#7BBC7F" transform="translate(90,136)"/>
<path d="M0 0 C12.54 0 25.08 0 38 0 C38 17.16 38 34.32 38 52 C36 50 36 50 35.75949097 47.89926147 C35.7661528 46.6002037 35.7661528 46.6002037 35.77294922 45.27490234 C35.77310028 44.29403656 35.77325134 43.31317078 35.77340698 42.30258179 C35.78372955 41.24108917 35.79405212 40.17959656 35.8046875 39.0859375 C35.8075174 38.00116119 35.81034729 36.91638489 35.81326294 35.79873657 C35.82448422 32.32404687 35.84959238 28.84961218 35.875 25.375 C35.88502728 23.02344121 35.89415357 20.6718784 35.90234375 18.3203125 C35.92442989 12.54678756 35.95792655 6.77341199 36 1 C31.47914629 1.11813019 26.95851786 1.24236976 22.43798828 1.37231445 C20.89962347 1.41566926 19.36121037 1.45734395 17.82275391 1.49731445 C15.6134586 1.55500398 13.40440652 1.61870179 11.1953125 1.68359375 C10.50567413 1.70030624 9.81603577 1.71701874 9.10549927 1.73423767 C5.42885736 1.80806995 5.42885736 1.80806995 2 3 C1.67 48.21 1.34 93.42 1 140 C12.88 140 24.76 140 37 140 C37 121.85 37 103.7 37 85 C37.33 85 37.66 85 38 85 C38 103.48 38 121.96 38 141 C25.46 141 12.92 141 0 141 C0 94.47 0 47.94 0 0 Z " fill="#DBF8DC" transform="translate(91,136)"/>
<path d="M0 0 C19.305 0.495 19.305 0.495 39 1 C39 48.19 39 95.38 39 144 C38.67 144 38.34 144 38 144 C38 97.47 38 50.94 38 3 C25.79 3 13.58 3 1 3 C1 20.16 1 37.32 1 55 C0.67 55 0.34 55 0 55 C-0.16796543 47.48875121 -0.32790385 39.97736272 -0.48217773 32.46582031 C-0.53565186 29.9088145 -0.59098526 27.35184688 -0.64819336 24.79492188 C-0.72995337 21.12638589 -0.8050952 17.45776593 -0.87890625 13.7890625 C-0.90594131 12.64007477 -0.93297638 11.49108704 -0.96083069 10.30728149 C-0.98092697 9.2463327 -1.00102325 8.18538391 -1.02172852 7.09228516 C-1.04171402 6.15518707 -1.06169952 5.21808899 -1.08229065 4.25259399 C-1 2 -1 2 0 0 Z " fill="#98D19A" transform="translate(170,133)"/>
<path d="M0 0 C12.87 0 25.74 0 39 0 C41.249718 5.624295 41.249718 5.624295 41.21118164 9.29956055 C41.20780289 10.11357834 41.20442413 10.92759613 41.20094299 11.76628113 C41.18748337 12.63102554 41.17402374 13.49576996 41.16015625 14.38671875 C41.15495468 15.28493851 41.14975311 16.18315826 41.14439392 17.1085968 C41.1266277 19.96839818 41.0954471 22.82783641 41.0625 25.6875 C41.03489366 28.55783899 41.01019987 31.42812826 40.99131775 34.29853821 C40.97904687 36.08259128 40.9614299 37.86661701 40.93800354 39.65055847 C40.76658986 43.95990506 40.76658986 43.95990506 42 48 C41.67 49.32 41.34 50.64 41 52 C53.21 51.67 65.42 51.34 78 51 C78 36.48 78 21.96 78 7 C78.33 7 78.66 7 79 7 C79 22.51 79 38.02 79 54 C65.47 54 51.94 54 38 54 C38 36.51 38 19.02 38 1 C25.46 1 12.92 1 0 1 C0 0.67 0 0.34 0 0 Z " fill="#73B876" transform="translate(91,135)"/>
<path d="M0 0 C13.53 0 27.06 0 41 0 C41 18.15 41 36.3 41 55 C40.67 55 40.34 55 40 55 C39.98969254 54.35076065 39.97938507 53.7015213 39.96876526 53.03260803 C39.86093864 46.30100948 39.74632219 39.5695513 39.62768555 32.83813477 C39.58425994 30.32286504 39.54259071 27.80756437 39.50268555 25.29223633 C39.44516707 21.68561456 39.38142033 18.07914969 39.31640625 14.47265625 C39.29969376 13.34038101 39.28298126 12.20810577 39.26576233 11.04151917 C39.2358445 9.48001381 39.2358445 9.48001381 39.20532227 7.88696289 C39.18200584 6.50463219 39.18200584 6.50463219 39.15821838 5.09437561 C39.22977244 3.01249529 39.22977244 3.01249529 38 2 C35.3339846 1.91145653 32.69330601 1.884681 30.02734375 1.90234375 C28.9673114 1.90385437 28.9673114 1.90385437 27.88586426 1.90539551 C25.23639309 1.91064255 22.58694498 1.92460371 19.9375 1.9375 C11.0584375 1.9684375 11.0584375 1.9684375 2 2 C1.67 19.49 1.34 36.98 1 55 C0.67 55 0.34 55 0 55 C0 36.85 0 18.7 0 0 Z " fill="#60AB64" transform="translate(250,222)"/>
<path d="M0 0 C0.33 0 0.66 0 1 0 C1.02689216 1.47906892 1.04634621 2.95827483 1.0625 4.4375 C1.07410156 5.26121094 1.08570313 6.08492187 1.09765625 6.93359375 C1 9 1 9 0 10 C-0.165 11.155 -0.33 12.31 -0.5 13.5 C-1 17 -1 17 -2 18 C-2.21035905 20.12112042 -2.36850101 22.24753419 -2.5 24.375 C-2.71580047 27.85092908 -2.8975492 30.6926476 -4 34 C-4.1539263 36.80160502 -4.25738045 39.58298425 -4.31640625 42.38671875 C-4.33718735 43.20372757 -4.35796844 44.02073639 -4.37937927 44.86250305 C-4.44473079 47.47075034 -4.50369273 50.07909775 -4.5625 52.6875 C-4.60569892 54.45639054 -4.64931365 56.22527097 -4.69335938 57.99414062 C-4.80039743 62.32932463 -4.90170544 66.66460929 -5 71 C-5.33 71 -5.66 71 -6 71 C-7.66240615 46.47786656 -5.89395652 23.8722079 0 0 Z " fill="#729E51" transform="translate(30,158)"/>
<path d="M0 0 C0.33 0 0.66 0 1 0 C0.63818103 10.4022955 -1.41454418 19.95881111 -4 30 C-4.33 30 -4.66 30 -5 30 C-5.25032459 22.74058686 -5.25032459 22.74058686 -4.05859375 19.21484375 C-2.8575749 15.56746915 -2.36338441 11.98342624 -1.9375 8.1875 C-1.12781049 1.12781049 -1.12781049 1.12781049 0 0 Z " fill="#719F51" transform="translate(394,229)"/>
<path d="M0 0 C0.66 0 1.32 0 2 0 C2.33 3.63 2.66 7.26 3 11 C3.66 10.67 4.32 10.34 5 10 C4.67 14.29 4.34 18.58 4 23 C3.67 23 3.34 23 3 23 C2.49187886 20.48056604 1.99335466 17.95983127 1.5 15.4375 C1.35691406 14.73302734 1.21382812 14.02855469 1.06640625 13.30273438 C0.19125075 8.78109762 -0.14523405 4.60512972 0 0 Z " fill="#6CA150" transform="translate(25,229)"/>
<path d="M0 0 C0.33 1.32 0.66 2.64 1 4 C0.34 4 -0.32 4 -1 4 C-1.10570313 4.57363281 -1.21140625 5.14726563 -1.3203125 5.73828125 C-2.10435648 8.3472552 -3.23799868 10.017048 -4.875 12.1875 C-5.38804688 12.88230469 -5.90109375 13.57710937 -6.4296875 14.29296875 C-8 16 -8 16 -11 17 C-9.52869627 12.6426774 -7.16919385 9.28065866 -4.375 5.6875 C-3.95476563 5.13771484 -3.53453125 4.58792969 -3.1015625 4.02148438 C-2.07279961 2.67707832 -1.0370991 1.33798587 0 0 Z " fill="#6BA151" transform="translate(66,89)"/>
<path d="M0 0 C0 0.33 0 0.66 0 1 C-0.85464844 1.13277344 -1.70929688 1.26554687 -2.58984375 1.40234375 C-3.69457031 1.57894531 -4.79929688 1.75554688 -5.9375 1.9375 C-7.03964844 2.11152344 -8.14179688 2.28554688 -9.27734375 2.46484375 C-11.90426929 2.71845136 -11.90426929 2.71845136 -13 4 C-15.69235776 4.23678716 -18.36498156 4.42198025 -21.0625 4.5625 C-22.20041992 4.62727539 -22.20041992 4.62727539 -23.36132812 4.69335938 C-25.24065438 4.79973633 -27.12030244 4.90039934 -29 5 C-26.15989351 3.10659568 -25.01575444 2.65248892 -21.796875 2.1484375 C-20.98089844 2.01953125 -20.16492188 1.890625 -19.32421875 1.7578125 C-18.47472656 1.63148437 -17.62523437 1.50515625 -16.75 1.375 C-15.91597656 1.2409375 -15.08195313 1.106875 -14.22265625 0.96875 C-9.4219692 0.23018276 -4.85561053 -0.14435599 0 0 Z " fill="#749D52" transform="translate(195,23)"/>
<path d="M0 0 C3.15561594 3.48205897 4.78062255 6.64370482 6.26953125 11.01171875 C7.04477798 13.26662477 7.04477798 13.26662477 8.75 16.25 C10.13660153 19.30052337 9.96250328 19.95640855 9 23 C7.87327825 20.60496313 6.74857442 18.2090129 5.625 15.8125 C5.14933594 14.80219727 5.14933594 14.80219727 4.6640625 13.77148438 C0 3.81176758 0 3.81176758 0 0 Z " fill="#709F51" transform="translate(35,272)"/>
<path d="M0 0 C5.59753384 4.54799625 10.3143947 9.52331848 15 15 C14.67 15.66 14.34 16.32 14 17 C12.125 16.3125 12.125 16.3125 10 15 C9.71125 14.23429687 9.4225 13.46859375 9.125 12.6796875 C7.83353343 9.60348588 6.30890018 8.06756522 3.875 5.8125 C2.54850864 4.57806053 1.24749467 3.31422113 0 2 C0 1.34 0 0.68 0 0 Z " fill="#6EA050" transform="translate(343,79)"/>
<path d="M0 0 C5.85659906 1.66153012 11.4590134 3.47041916 17 6 C13.94736336 6.98120464 12.05263664 6.98120464 9 6 C9 5.34 9 4.68 9 4 C7.88625 3.896875 6.7725 3.79375 5.625 3.6875 C3.830625 3.3471875 3.830625 3.3471875 2 3 C1.34 2.01 0.68 1.02 0 0 Z " fill="#729E51" transform="translate(272,33)"/>
<path d="M0 0 C-1.41666667 4.25 -1.41666667 4.25 -4 6 C-6.71836308 6.25786843 -9.25839624 6.13483297 -12 6 C-8.59780735 3.25207517 -4.51535412 0 0 0 Z " fill="#6AA151" transform="translate(133,39)"/>
<path d="M0 0 C-5.73230171 2.85288164 -10.59859065 4.53444296 -17 5 C-14.65117776 2.65117776 -12.72876333 1.96496976 -9.625 0.8125 C-8.66851562 0.44769531 -7.71203125 0.08289062 -6.7265625 -0.29296875 C-3.94714704 -1.01370542 -2.64891897 -0.98549829 0 0 Z " fill="#729E50" transform="translate(155,32)"/>
<path d="M0 0 C0.66 0.99 1.32 1.98 2 3 C1.01 3.33 0.02 3.66 -1 4 C-1.73323796 6.01508358 -1.73323796 6.01508358 -2 8 C-3.65 8.33 -5.3 8.66 -7 9 C-6.02180976 7.68677212 -5.0424189 6.37443848 -4.0625 5.0625 C-3.51722656 4.33160156 -2.97195312 3.60070312 -2.41015625 2.84765625 C-1 1 -1 1 0 0 Z " fill="#6DA051" transform="translate(74,80)"/>
<path d="M0 0 C0.66 0.33 1.32 0.66 2 1 C1.67 1.66 1.34 2.32 1 3 C1.99 3.33 2.98 3.66 4 4 C2.02 5.32 0.04 6.64 -2 8 C-2.66 7.67 -3.32 7.34 -4 7 C-3.525625 6.5875 -3.05125 6.175 -2.5625 5.75 C-0.83733482 3.817815 -0.43415125 2.51807725 0 0 Z " fill="#63A450" transform="translate(310,360)"/>
<path d="M0 0 C0.66 0.33 1.32 0.66 2 1 C-2.30769231 6.78461538 -2.30769231 6.78461538 -5.8125 7.875 C-6.8953125 7.936875 -6.8953125 7.936875 -8 8 C-5.33333333 5.33333333 -2.66666667 2.66666667 0 0 Z " fill="#729F52" transform="translate(95,61)"/>
<path d="M0 0 C5.875 3.75 5.875 3.75 7 6 C4.69 5.67 2.38 5.34 0 5 C0 3.35 0 1.7 0 0 Z " fill="#6BA250" transform="translate(326,63)"/>
<path d="M0 0 C1.9789756 3.63616656 2.5251065 6.88425629 3 11 C2.01 10.34 1.02 9.68 0 9 C-0.29296875 6.8359375 -0.29296875 6.8359375 -0.1875 4.375 C-0.16042969 3.55773437 -0.13335937 2.74046875 -0.10546875 1.8984375 C-0.05326172 0.95871094 -0.05326172 0.95871094 0 0 Z " fill="#6FA250" transform="translate(387,151)"/>
<path d="M0 0 C0.66 1.32 1.32 2.64 2 4 C0.02 6.97 0.02 6.97 -2 10 C-3 8 -3 8 -2.44140625 6.0546875 C-2.15136719 5.33539063 -1.86132812 4.61609375 -1.5625 3.875 C-1.27503906 3.15054688 -0.98757812 2.42609375 -0.69140625 1.6796875 C-0.46324219 1.12539062 -0.23507813 0.57109375 0 0 Z " fill="#6EA253" transform="translate(38,135)"/>
</svg>
