<svg width="122" height="34" fill="none" xmlns="http://www.w3.org/2000/svg"><g clip-path="url('#clip0_211_2736')"><path d="M47.296 0a6.56 6.56 0 0 1 6.562 6.562v20.569a6.56 6.56 0 0 1-6.562 6.562H31.698L43.492 0h3.805ZM8.127 33.693H22.26L34.047 0H19.92L8.127 33.693Z" fill="#FDBD00"/><path d="M45.84 33.693H31.708L19.922 0h14.126L45.84 33.693ZM6.562 0A6.56 6.56 0 0 0 0 6.562v20.569a6.56 6.56 0 0 0 6.562 6.562H22.16L10.372 0h-3.81ZM69.765 10.78l1.311-8.68h2.763L71.38 15.91h-2.797l-1.61-8.142-1.596 8.142h-2.808L60.101 2.1h2.782l1.302 8.671 1.62-8.67h2.344l1.62 8.68h-.004ZM79.259 15.911c-.075-.16-.15-.424-.23-.798-.478.659-1.132.988-1.954.988-.823 0-1.576-.284-2.14-.853-.568-.568-.847-1.306-.847-2.209 0-1.077.344-1.905 1.027-2.493.688-.589 1.675-.888 2.967-.903h.818v-.827c0-.464-.08-.788-.24-.978-.16-.19-.388-.284-.693-.284-.668 0-1.007.394-1.007 1.177h-2.683c0-.948.354-1.73 1.067-2.349.714-.618 1.611-.922 2.698-.922s1.995.294 2.613.877c.618.584.927 1.421.927 2.508v4.827c.015.888.14 1.581.38 2.08v.16h-2.703Zm-1.586-1.915c.3 0 .549-.06.758-.18.21-.119.364-.263.464-.428v-2.134h-.644c-.453 0-.812.145-1.077.439-.264.289-.394.678-.394 1.167 0 .758.3 1.136.893 1.136ZM86.26 3.121v2.523h1.376v2.01H86.26v5.1c0 .405.054.684.164.838.11.155.324.23.638.23.26 0 .474-.02.639-.065l-.02 2.09a4.2 4.2 0 0 1-1.481.254c-1.735 0-2.608-.993-2.628-2.982v-5.46h-1.187v-2.01h1.187V3.126h2.683l.005-.005ZM92.428 13.892c.778 0 1.172-.514 1.187-1.536h2.523c-.015 1.122-.36 2.024-1.032 2.713-.673.688-1.551 1.032-2.618 1.032-1.322 0-2.329-.414-3.027-1.232-.698-.823-1.052-2.034-1.062-3.635v-.818c0-1.61.344-2.842 1.027-3.69.688-.847 1.7-1.271 3.042-1.271 1.132 0 2.024.349 2.677 1.047.654.698.983 1.69.998 2.972H93.62c-.005-.584-.1-1.027-.285-1.341-.184-.315-.488-.47-.912-.47-.469 0-.803.165-1.007.5-.205.334-.31.982-.324 1.944v1.052c0 .843.04 1.426.124 1.76.085.335.22.579.41.733.189.155.458.235.807.235l-.005.005ZM99.728 6.547c.583-.728 1.296-1.092 2.144-1.092.937 0 1.646.329 2.134.987.489.658.733 1.64.738 2.942v6.527h-2.692V9.414c0-.603-.095-1.037-.28-1.306-.184-.27-.488-.404-.907-.404-.489 0-.868.224-1.137.673v7.534h-2.683V1.341h2.683v5.21-.004ZM68.718 32.162h-8.143v-1.88l3.74-4.767c.474-.658.823-1.241 1.047-1.74.224-.498.334-.977.334-1.43 0-.62-.105-1.098-.319-1.447-.214-.349-.519-.523-.917-.523-.44 0-.783.204-1.038.613-.254.409-.384.982-.384 1.72h-2.692c0-.848.174-1.62.528-2.323.354-.704.843-1.247 1.481-1.636.639-.389 1.357-.583 2.16-.583 1.231 0 2.188.339 2.871 1.017.679.678 1.018 1.645 1.018 2.897 0 .778-.19 1.566-.564 2.368-.374.798-1.057 1.785-2.044 2.962l-1.775 2.543h4.697v2.21ZM80.011 30.596a5.078 5.078 0 0 1-1.98 1.317c-.782.294-1.635.439-2.567.439-1.586 0-2.822-.494-3.7-1.476-.878-.983-1.331-2.414-1.356-4.294v-2.488c0-1.905.414-3.37 1.246-4.398.833-1.027 2.045-1.54 3.64-1.54 1.501 0 2.628.368 3.391 1.111.763.738 1.202 1.9 1.322 3.48h-2.713c-.075-.877-.26-1.475-.549-1.8-.289-.323-.748-.478-1.366-.478-.753 0-1.301.274-1.64.828-.344.548-.519 1.426-.534 2.627v2.504c0 1.256.19 2.174.564 2.747.373.574.992.858 1.855.858.548 0 .997-.11 1.336-.334l.25-.17v-2.533h-1.956v-2.104h4.752v5.704h.005ZM85.995 32.351c-1.38 0-2.453-.414-3.226-1.231-.773-.823-1.157-2-1.157-3.53v-.819c0-1.62.354-2.867 1.062-3.75.708-.877 1.726-1.316 3.047-1.316 1.322 0 2.264.414 2.912 1.237.653.823.983 2.044.997 3.66v1.316h-5.34c.04.768.204 1.332.504 1.686.299.354.758.533 1.376.533.897 0 1.645-.314 2.249-.937l1.052 1.62c-.33.454-.808.823-1.431 1.107a4.961 4.961 0 0 1-2.04.424h-.005Zm-1.69-6.297h2.683v-.25c-.015-.618-.115-1.087-.305-1.406-.189-.32-.518-.479-.987-.479s-.808.17-1.017.509c-.215.339-.34.883-.374 1.625ZM94.268 19.372v2.523h1.376v2.01h-1.376v5.1c0 .405.055.684.164.838.11.155.324.23.639.23.259 0 .473-.02.638-.065l-.02 2.09a4.2 4.2 0 0 1-1.481.254c-1.735 0-2.608-.993-2.628-2.982v-5.46h-1.187V21.9h1.187v-2.523h2.683l.005-.005ZM99.733 22.798c.583-.728 1.296-1.092 2.144-1.092.938 0 1.646.329 2.134.987.489.658.733 1.64.738 2.942v6.527h-2.692v-6.497c0-.604-.095-1.037-.28-1.307-.184-.269-.488-.404-.907-.404-.489 0-.868.225-1.137.674v7.534H97.05V17.587h2.683v5.21ZM110.827 32.351c-1.381 0-2.453-.414-3.226-1.231-.773-.823-1.157-2-1.157-3.53v-.819c0-1.62.354-2.867 1.062-3.75.709-.877 1.726-1.316 3.047-1.316 1.322 0 2.264.414 2.912 1.237.653.823.983 2.044.997 3.66v1.316h-5.34c.04.768.204 1.332.504 1.686.299.354.758.533 1.376.533.897 0 1.645-.314 2.249-.937l1.052 1.62c-.329.454-.808.823-1.431 1.107a4.962 4.962 0 0 1-2.04.424h-.005Zm-1.69-6.297h2.683v-.25c-.015-.618-.115-1.087-.304-1.406-.19-.32-.519-.479-.988-.479s-.808.17-1.017.509c-.214.339-.339.883-.374 1.625ZM121.045 24.488l-.893-.075c-.733 0-1.232.324-1.491.967v6.782h-2.692V21.895h2.533l.074 1.112c.424-.868 1.008-1.302 1.756-1.302.304 0 .548.04.738.125l-.03 2.658h.005Z" fill="#E8EDF4"/></g><defs><clipPath id="clip0_211_2736"><path fill="#fff" d="M0 0h121.075v33.693H0z"/></clipPath></defs></svg>