<svg xmlns="http://www.w3.org/2000/svg" xml:space="preserve" viewBox="0 0 24 24" id="Twitch">
  <path d="M9 24.001H7a.5.5 0 0 1-.5-.5v-2.5H1a.5.5 0 0 1-.5-.5v-16c0-.06.011-.12.032-.176l1.5-4A.501.501 0 0 1 2.5.001H23a.5.5 0 0 1 .5.5v14c0 .133-.053.26-.146.354l-6 6a.5.5 0 0 1-.354.146h-4.793l-2.854 2.854a.495.495 0 0 1-.353.146zm-1.5-1h1.293l2.854-2.854a.5.5 0 0 1 .354-.146h4.793l5.707-5.707V1.001H2.847L1.5 4.592v15.409H7a.5.5 0 0 1 .5.5v2.5z" fill="#dee3e6" class="color000000 svgShape"></path>
  <path d="M9 21.001a.499.499 0 0 1-.5-.5v-2.5h-5a.5.5 0 0 1-.5-.5v-15a.5.5 0 0 1 .5-.5H21a.5.5 0 0 1 .5.5v11c0 .133-.053.26-.146.354l-4 4a.5.5 0 0 1-.354.146h-4.793l-2.854 2.854a.496.496 0 0 1-.353.146zm-5-4h5a.5.5 0 0 1 .5.5v1.793l2.146-2.146a.5.5 0 0 1 .354-.146h4.793l3.707-3.707V3.001H4v14z" fill="#dee3e6" class="color000000 svgShape"></path>
  <path d="M10 13.001a.5.5 0 0 1-.5-.5v-6a.5.5 0 0 1 1 0v6a.5.5 0 0 1-.5.5zM16 13.001a.5.5 0 0 1-.5-.5v-6a.5.5 0 0 1 1 0v6a.5.5 0 0 1-.5.5z" fill="#dee3e6" class="color000000 svgShape"></path>
</svg>
